<mxfile host="app.diagrams.net" modified="2021-08-05T03:08:29.949Z" agent="5.0 (X11; Linux x86_64) AppleWebKit/537.36 (KHTML, like Gecko) Chrome/91.0.4472.114 Safari/537.36" etag="1gU9gnFhSWaFNg0U3jps" version="14.9.4" type="github">
  <diagram id="QjHjxstzcb5XQiJaWK_5" name="Page-1">
    <mxGraphModel dx="2177" dy="774" grid="1" gridSize="10" guides="1" tooltips="1" connect="1" arrows="1" fold="1" page="1" pageScale="1" pageWidth="827" pageHeight="1169" math="0" shadow="0">
      <root>
        <mxCell id="0" />
        <mxCell id="1" parent="0" />
        <mxCell id="b_7IWJ5b_L8naCCLWlWk-13" value="" style="shape=umlLifeline;participant=umlBoundary;perimeter=lifelinePerimeter;whiteSpace=wrap;html=1;container=1;collapsible=0;recursiveResize=0;verticalAlign=top;spacingTop=36;outlineConnect=0;labelBackgroundColor=none;" vertex="1" parent="1">
          <mxGeometry x="110" y="120" width="50" height="490" as="geometry" />
        </mxCell>
        <mxCell id="b_7IWJ5b_L8naCCLWlWk-16" value="" style="shape=umlLifeline;participant=umlEntity;perimeter=lifelinePerimeter;whiteSpace=wrap;html=1;container=1;collapsible=0;recursiveResize=0;verticalAlign=top;spacingTop=36;outlineConnect=0;labelBackgroundColor=none;" vertex="1" parent="1">
          <mxGeometry x="414" y="120" width="40" height="480" as="geometry" />
        </mxCell>
        <mxCell id="b_7IWJ5b_L8naCCLWlWk-23" value="" style="edgeStyle=segmentEdgeStyle;endArrow=classic;html=1;verticalAlign=middle;" edge="1" parent="1" source="b_7IWJ5b_L8naCCLWlWk-16" target="b_7IWJ5b_L8naCCLWlWk-16">
          <mxGeometry width="50" height="50" relative="1" as="geometry">
            <mxPoint x="650" y="200" as="sourcePoint" />
            <mxPoint x="680" y="240" as="targetPoint" />
            <Array as="points">
              <mxPoint x="530" y="200" />
              <mxPoint x="530" y="240" />
            </Array>
          </mxGeometry>
        </mxCell>
        <mxCell id="b_7IWJ5b_L8naCCLWlWk-24" value="Generate Public/Private Keys" style="text;html=1;align=center;verticalAlign=middle;resizable=0;points=[];autosize=1;strokeColor=none;" vertex="1" parent="1">
          <mxGeometry x="440" y="180" width="170" height="20" as="geometry" />
        </mxCell>
        <mxCell id="b_7IWJ5b_L8naCCLWlWk-25" value="Get public key" style="html=1;verticalAlign=bottom;endArrow=block;" edge="1" parent="1">
          <mxGeometry width="80" relative="1" as="geometry">
            <mxPoint x="430" y="272" as="sourcePoint" />
            <mxPoint x="134.5" y="272" as="targetPoint" />
          </mxGeometry>
        </mxCell>
        <mxCell id="b_7IWJ5b_L8naCCLWlWk-26" value="" style="edgeStyle=segmentEdgeStyle;endArrow=classic;html=1;verticalAlign=middle;" edge="1" parent="1">
          <mxGeometry width="50" height="50" relative="1" as="geometry">
            <mxPoint x="135" y="290" as="sourcePoint" />
            <mxPoint x="135" y="330" as="targetPoint" />
            <Array as="points">
              <mxPoint x="65" y="290" />
              <mxPoint x="65" y="330" />
            </Array>
          </mxGeometry>
        </mxCell>
        <mxCell id="b_7IWJ5b_L8naCCLWlWk-27" value="Generate Secret and&lt;br&gt;&amp;nbsp;encrypt using public key" style="text;html=1;align=center;verticalAlign=middle;resizable=0;points=[];autosize=1;strokeColor=none;" vertex="1" parent="1">
          <mxGeometry x="-10" y="260" width="150" height="30" as="geometry" />
        </mxCell>
        <mxCell id="b_7IWJ5b_L8naCCLWlWk-28" value="Verify Email Call with encrypted secret" style="html=1;verticalAlign=bottom;endArrow=block;" edge="1" parent="1" source="b_7IWJ5b_L8naCCLWlWk-13" target="b_7IWJ5b_L8naCCLWlWk-16">
          <mxGeometry width="80" relative="1" as="geometry">
            <mxPoint x="370" y="390" as="sourcePoint" />
            <mxPoint x="450" y="390" as="targetPoint" />
            <Array as="points">
              <mxPoint x="320" y="360" />
            </Array>
          </mxGeometry>
        </mxCell>
        <mxCell id="b_7IWJ5b_L8naCCLWlWk-29" value="" style="edgeStyle=segmentEdgeStyle;endArrow=classic;html=1;verticalAlign=middle;" edge="1" parent="1">
          <mxGeometry width="50" height="50" relative="1" as="geometry">
            <mxPoint x="435" y="370" as="sourcePoint" />
            <mxPoint x="435" y="410" as="targetPoint" />
            <Array as="points">
              <mxPoint x="515.5" y="370" />
              <mxPoint x="515.5" y="410" />
            </Array>
          </mxGeometry>
        </mxCell>
        <mxCell id="b_7IWJ5b_L8naCCLWlWk-30" value="Store encrypted seed" style="text;html=1;align=center;verticalAlign=middle;resizable=0;points=[];autosize=1;strokeColor=none;" vertex="1" parent="1">
          <mxGeometry x="430" y="340" width="130" height="20" as="geometry" />
        </mxCell>
        <mxCell id="b_7IWJ5b_L8naCCLWlWk-31" value="" style="edgeStyle=segmentEdgeStyle;endArrow=classic;html=1;verticalAlign=middle;" edge="1" parent="1">
          <mxGeometry width="50" height="50" relative="1" as="geometry">
            <mxPoint x="136" y="410" as="sourcePoint" />
            <mxPoint x="136" y="450" as="targetPoint" />
            <Array as="points">
              <mxPoint x="66" y="410" />
              <mxPoint x="66" y="450" />
            </Array>
          </mxGeometry>
        </mxCell>
        <mxCell id="b_7IWJ5b_L8naCCLWlWk-32" value="Generate token using secret&lt;br&gt;&amp;nbsp;and Start Showing it" style="text;html=1;align=center;verticalAlign=middle;resizable=0;points=[];autosize=1;strokeColor=none;" vertex="1" parent="1">
          <mxGeometry x="-29" y="380" width="170" height="30" as="geometry" />
        </mxCell>
        <mxCell id="b_7IWJ5b_L8naCCLWlWk-34" value="" style="shape=umlLifeline;participant=umlEntity;perimeter=lifelinePerimeter;whiteSpace=wrap;html=1;container=1;collapsible=0;recursiveResize=0;verticalAlign=top;spacingTop=36;outlineConnect=0;labelBackgroundColor=none;" vertex="1" parent="1">
          <mxGeometry x="730" y="120" width="40" height="480" as="geometry" />
        </mxCell>
        <mxCell id="b_7IWJ5b_L8naCCLWlWk-35" value="Client" style="text;html=1;align=center;verticalAlign=middle;resizable=0;points=[];autosize=1;strokeColor=none;" vertex="1" parent="1">
          <mxGeometry x="723" y="98" width="50" height="20" as="geometry" />
        </mxCell>
        <mxCell id="b_7IWJ5b_L8naCCLWlWk-36" value="Server" style="text;html=1;align=center;verticalAlign=middle;resizable=0;points=[];autosize=1;strokeColor=none;" vertex="1" parent="1">
          <mxGeometry x="409" y="96" width="50" height="20" as="geometry" />
        </mxCell>
        <mxCell id="b_7IWJ5b_L8naCCLWlWk-37" value="&lt;span&gt;ShipAuth App&lt;/span&gt;" style="text;html=1;align=center;verticalAlign=middle;resizable=0;points=[];autosize=1;strokeColor=none;" vertex="1" parent="1">
          <mxGeometry x="90" y="97" width="90" height="20" as="geometry" />
        </mxCell>
        <mxCell id="b_7IWJ5b_L8naCCLWlWk-39" value="Validate Token" style="html=1;verticalAlign=bottom;endArrow=block;" edge="1" parent="1" source="b_7IWJ5b_L8naCCLWlWk-34" target="b_7IWJ5b_L8naCCLWlWk-16">
          <mxGeometry width="80" relative="1" as="geometry">
            <mxPoint x="550" y="450" as="sourcePoint" />
            <mxPoint x="630" y="450" as="targetPoint" />
            <Array as="points">
              <mxPoint x="530" y="470" />
            </Array>
          </mxGeometry>
        </mxCell>
        <mxCell id="b_7IWJ5b_L8naCCLWlWk-40" value="" style="edgeStyle=segmentEdgeStyle;endArrow=classic;html=1;verticalAlign=middle;" edge="1" parent="1">
          <mxGeometry width="50" height="50" relative="1" as="geometry">
            <mxPoint x="433" y="490" as="sourcePoint" />
            <mxPoint x="433" y="530" as="targetPoint" />
            <Array as="points">
              <mxPoint x="363" y="490" />
              <mxPoint x="363" y="530" />
            </Array>
          </mxGeometry>
        </mxCell>
        <mxCell id="b_7IWJ5b_L8naCCLWlWk-41" value="Decrypt seed using private key &lt;br&gt;and validate the token" style="text;html=1;align=center;verticalAlign=middle;resizable=0;points=[];autosize=1;strokeColor=none;" vertex="1" parent="1">
          <mxGeometry x="260" y="455" width="180" height="30" as="geometry" />
        </mxCell>
        <mxCell id="b_7IWJ5b_L8naCCLWlWk-43" value="return valid true/false" style="html=1;verticalAlign=bottom;endArrow=block;" edge="1" parent="1" target="b_7IWJ5b_L8naCCLWlWk-34">
          <mxGeometry width="80" relative="1" as="geometry">
            <mxPoint x="430" y="550" as="sourcePoint" />
            <mxPoint x="510" y="550" as="targetPoint" />
          </mxGeometry>
        </mxCell>
      </root>
    </mxGraphModel>
  </diagram>
</mxfile>
